<?xml version="1.0" encoding="utf-8"?>
<!-- Generator: Adobe Illustrator 22.0.1, SVG Export Plug-In . SVG Version: 6.00 Build 0)  -->
<svg version="1.1" id="Livello_1" xmlns="http://www.w3.org/2000/svg" xmlns:xlink="http://www.w3.org/1999/xlink" x="0px" y="0px"
	 viewBox="0 0 68.2 37.1" style="enable-background:new 0 0 68.2 37.1;" xml:space="preserve">
<style type="text/css">
	.st0{fill:#E8B521;}
</style>
<g>
	<path class="st0" d="M49.3,5.5c7.2,0,13,5.8,13,13c0,7.2-5.8,13-13,13h-30c-7.2,0-13-5.8-13-13c0-7.2,5.8-13,13-13H49.3 M49.3,3.5
		h-30c-8.3,0-15,6.7-15,15v0c0,8.2,6.7,15,15,15h30c8.3,0,15-6.7,15-15v0C64.3,10.2,57.5,3.5,49.3,3.5L49.3,3.5z"/>
</g>
<g>
	<g>
		<path class="st0" d="M38.5,16.6v2.2h-3.2v3.6H33v-3.6h-3.2v-2.2H33v-3.5h2.3v3.5H38.5z"/>
	</g>
</g>
</svg>
